<svg xmlns="http://www.w3.org/2000/svg" viewBox="0 0 64 64" fill="none">
  <!-- Petals -->
  <ellipse cx="32" cy="14" rx="8" ry="13" fill="#FFBDBD" transform="rotate(0 32 32)"/>
  <ellipse cx="32" cy="14" rx="8" ry="13" fill="#FFBDBD" transform="rotate(45 32 32)"/>
  <ellipse cx="32" cy="14" rx="8" ry="13" fill="#FFD4D4" transform="rotate(90 32 32)"/>
  <ellipse cx="32" cy="14" rx="8" ry="13" fill="#FFBDBD" transform="rotate(135 32 32)"/>
  <ellipse cx="32" cy="14" rx="8" ry="13" fill="#FFD4D4" transform="rotate(180 32 32)"/>
  <ellipse cx="32" cy="14" rx="8" ry="13" fill="#FFBDBD" transform="rotate(225 32 32)"/>
  <ellipse cx="32" cy="14" rx="8" ry="13" fill="#FFD4D4" transform="rotate(270 32 32)"/>
  <ellipse cx="32" cy="14" rx="8" ry="13" fill="#FFBDBD" transform="rotate(315 32 32)"/>
  <!-- Center -->
  <circle cx="32" cy="32" r="9" fill="#ff9e9e"/>
  <circle cx="32" cy="32" r="5" fill="#FFBDBD"/>
  <circle cx="32" cy="32" r="2" fill="#fff8f8"/>
</svg>
